<?xml version="1.0" encoding="UTF-8"?>
<!-- Generated by Pixelmator Pro 3.8 -->
<svg width="719" height="436" viewBox="0 0 719 436" xmlns="http://www.w3.org/2000/svg">
    <g id="Group-copy">
        <path id="Path" fill="#016cf8" stroke="none" d="M 367.690979 1.497009 C 369.515015 1.428955 371.340027 1.388 373.164978 1.374023 C 412.090027 0.990967 449.530029 16.299988 477.036011 43.846008 C 496.281982 63.042969 509.539978 87.416016 515.198975 114.004028 C 519.161011 132.172974 518.276978 151.984985 518.276978 170.664001 L 518.27002 226.93103 L 518.29303 435.270996 L 477.809021 435.302002 L 477.820007 209.678955 L 477.856995 165.927002 C 477.859985 157.363037 478.158997 146.218994 477.487 137.908997 C 475.697998 114.882996 465.976013 93.19104 449.979004 76.532959 C 430.299011 56.196045 403.244995 44.661011 374.945007 44.540039 C 347.033997 44.255005 318.823975 55.171021 298.921997 74.868042 C 281.812988 91.882996 271.153015 114.317993 268.768005 138.328979 C 267.961975 147.037964 268.330994 161.811035 268.302979 170.927002 C 262.000977 170.809998 255.698975 170.765015 249.396973 170.792969 C 244.846985 167.811035 233.700989 157.832031 228.226013 153.551025 C 227.880005 70.078979 283.603027 7.103027 367.690979 1.497009 Z"/>
        <path id="path1" fill="#00c889" stroke="none" d="M 28.274994 120.208008 C 43.705994 119.153992 53.656006 128.237 58.468994 142.105957 C 97.033997 142.218994 138.381012 141.259033 176.518005 142.270996 C 181.85199 145.661011 192.335999 155.606995 197.755005 160.005981 C 212.720001 172.155029 227.963989 186.321045 243.026001 198.145996 C 253.97699 198.578979 266.807007 200.132996 277.755005 201.619995 C 277.919006 206.622009 277.760986 212.276001 277.732971 217.327026 C 266.554016 215.697998 245.960999 214.846985 236.388 212.630981 L 170.28299 157.079956 C 165.127991 157.224976 159.819 157.203003 154.654999 157.174988 C 122.48999 156.997009 90.247986 157.44397 58.089996 157.02301 C 54.966003 168.117004 45.730988 175.765991 34.407013 177.424988 C 26.781006 178.60199 19.009003 176.541992 12.966003 171.742004 C 6.729004 166.877014 2.726013 159.695007 1.867004 151.832031 C 0.09201 134.766968 11.441986 121.842041 28.274994 120.208008 Z"/>
        <path id="path2" fill="#6c2cec" stroke="none" d="M 271.89801 298.396973 L 277.643982 298.145996 L 277.689026 313.466003 C 265.65802 314.661011 253.614014 315.708984 241.558014 316.607971 C 220.389008 332.890015 197.074005 352.385986 176.558014 369.463013 L 58.390991 369.478027 C 55.813995 375.937988 52.468994 380.981018 46.622986 384.95697 C 40.128998 389.361023 32.109985 390.901001 24.446014 389.215027 C 15.346008 387.30603 9.947998 382.392029 5.024994 374.987976 C 4.451996 373.80603 3.855011 372.55603 3.386993 371.33197 C 0.660004 364.012024 1.040009 355.89502 4.438995 348.861023 C 7.854004 341.85498 14.019989 336.577026 21.470001 334.28302 C 28.963013 331.882019 37.110992 332.629028 44.041992 336.353027 C 51.977997 340.598999 55.388 346.450989 57.993988 354.578979 C 94.889008 353.877014 133.894989 354.517029 170.963013 354.505981 L 212.778015 320.315002 C 219.52301 314.814026 229.411987 306.325012 236.367004 301.565979 C 247.848999 300.885986 260.370972 299.471985 271.89801 298.396973 Z"/>
        <path id="path3" fill="#016cf8" stroke="none" d="M 27.319 227.275024 C 43.160004 226.598022 53.53299 234.297974 58.174011 249.224976 L 277.708008 249.304993 L 277.677002 263.948975 C 262.947998 263.710999 247.716003 263.885986 232.949005 263.869019 L 120.431 263.857971 C 100.01001 263.853027 78.806 263.549988 58.488007 263.945984 C 57.868011 265.263 57.213013 266.562988 56.523987 267.844971 C 48.329987 283.185974 29.898987 288.719971 15.109985 279.637024 C 8.662994 275.682007 4.096008 269.281982 2.450989 261.898987 C 0.764008 254.288025 2.238007 246.317993 6.536011 239.813965 C 11.773987 231.958984 18.515991 229.005005 27.319 227.275024 Z"/>
        <path id="path4" fill="#016cf8" stroke="none" d="M 250.265991 343.03302 C 255.955994 343.213989 262.445984 342.960022 268.195984 342.866028 C 268.721985 352.171997 268.166016 366.338013 268.127991 376.036987 L 268.117981 435.286987 L 245.580994 435.310974 L 227.621002 435.343018 C 227.519989 410.437012 227.553986 385.531006 227.725006 360.625 C 231.855988 357.156006 245.971985 344.823975 250.265991 343.03302 Z"/>
        <path id="path5" fill="#00c889" stroke="none" d="M 667.778992 139.547974 C 672.947998 141.854004 683.835999 148.980957 689.059021 152.333984 C 697.60199 157.81604 708.31897 164.052002 716.182983 170.02002 C 699.926025 179.781006 683.870972 190.398987 667.731018 200.453003 L 667.877991 177.653015 C 648.656006 177.276978 628.578003 177.545044 609.289978 177.519043 L 538.728027 177.510986 L 538.619995 162.372009 L 667.786011 162.380981 L 667.778992 139.547974 Z"/>
        <path id="path6" fill="#016cf8" stroke="none" d="M 667.734009 226.065002 C 673.35498 228.959961 681.966003 234.695007 687.541016 238.266968 C 697.130981 244.329956 706.632019 250.530029 716.04303 256.867981 C 700.619995 266.638977 683.396973 277.174988 667.799011 286.591003 C 667.781982 279.202026 667.812988 271.812012 667.893005 264.422974 L 609.135986 264.413025 L 538.684998 264.390015 C 538.489014 259.627014 538.611023 254.156006 538.606018 249.338013 L 667.755005 249.262024 L 667.734009 226.065002 Z"/>
        <path id="path7" fill="#6c2cec" stroke="none" d="M 667.835022 313.646973 C 672.127014 315.653992 681.648987 322.031982 685.859009 324.736023 C 696.054993 331.22699 706.197021 337.802002 716.286011 344.458984 C 702.390991 353.732971 682.356018 365.953003 667.875977 374.437012 C 667.760986 367.072998 667.869019 359.447021 667.877991 352.059998 C 648.491028 351.825989 628.708984 352.015991 609.289978 352.000977 L 538.679993 352.112976 L 538.612 337.250977 L 667.789001 337.184998 L 667.835022 313.646973 Z"/>
        <path id="path8" fill="#6c2cec" stroke="none" d="M 385.421997 297.838013 C 403.348999 297.302002 423.398987 297.731018 441.508972 297.669006 L 441.513 313.241028 L 385.525024 313.177002 C 385.434998 308.064026 385.401001 302.950989 385.421997 297.838013 Z"/>
        <path id="path9" fill="#00c889" stroke="none" d="M 433.210999 202.932983 L 441.455994 202.990967 L 441.421021 218.420044 L 394.370972 218.407959 L 385.320984 218.406006 L 385.072021 203.124023 C 400.825012 202.770996 417.330017 203.075012 433.210999 202.932983 Z"/>
        <path id="path10" fill="#6c2cec" stroke="none" d="M 305.275024 297.684998 L 358.565979 297.664978 L 358.583008 313.051025 C 341.401001 313.263977 322.575989 313.408997 305.469971 312.857971 C 305.349976 307.825989 305.333984 302.723999 305.275024 297.684998 Z"/>
        <path id="path11" fill="#016cf8" stroke="none" d="M 385.401001 249.30603 L 441.487 249.385986 C 441.642029 254.072998 441.487 259.414978 441.458008 264.151978 L 385.450012 263.958984 C 385.29303 259.234009 385.39801 254.067017 385.401001 249.30603 Z"/>
        <path id="path12" fill="#00c889" stroke="none" d="M 305.297974 203.143005 L 358.702026 203.112 C 358.81897 208.067993 358.687012 213.223022 358.630981 218.195007 L 305.434021 218.112 C 305.289001 213.238037 305.338989 208.046997 305.297974 203.143005 Z"/>
        <path id="path13" fill="#016cf8" stroke="none" d="M 305.432007 249.336975 L 358.671021 249.325989 C 358.809998 254.104004 358.638977 259.39502 358.585022 264.211975 C 341.479004 263.564026 322.721985 263.934021 305.473999 263.971985 C 305.356995 259.150024 305.427002 254.171997 305.432007 249.336975 Z"/>
    </g>
</svg>
